<?xml version="1.0" encoding="UTF-8"?>
<svg version="1.1" xmlns="http://www.w3.org/2000/svg" width="225" height="225">
<path d="M0 0 C74.25 0 148.5 0 225 0 C225 74.25 225 148.5 225 225 C150.75 225 76.5 225 0 225 C0 150.75 0 76.5 0 0 Z " fill="#24B57E" transform="translate(0,0)"/>
<path d="M0 0 C14.40951078 10.97038283 25.48430477 27.01880932 28.3984375 45.15625 C30.30639673 65.47303457 26.2536923 83.79255516 13.8359375 100.21875 C12.71187525 101.54994282 11.56708471 102.8640217 10.3984375 104.15625 C9.86863281 104.76597656 9.33882813 105.37570313 8.79296875 106.00390625 C-1.66949064 117.31131486 -16.65230169 123.63394674 -31.6015625 126.15625 C-32.9215625 126.15625 -34.2415625 126.15625 -35.6015625 126.15625 C-36.25159875 123.94915017 -36.89640995 121.74051108 -37.5390625 119.53125 C-38.07853516 117.68660156 -38.07853516 117.68660156 -38.62890625 115.8046875 C-40.57024358 108.52272339 -40.72408248 101.77913041 -40.6640625 94.28125 C-40.65955078 93.21132812 -40.65503906 92.14140625 -40.65039062 91.0390625 C-40.63865999 88.41140014 -40.62224478 85.78385462 -40.6015625 83.15625 C-38.83029579 85.81315006 -37.99480933 87.7544146 -36.9765625 90.71875 C-34.65816316 96.62328765 -31.28330162 101.84068042 -26.6015625 106.15625 C-24.19455624 107.32114118 -24.19455624 107.32114118 -21.6015625 107.15625 C-11.55931276 101.13755065 -2.73854992 88.33176769 0.3984375 77.15625 C3.99397103 58.11034413 -2.3048252 41.20992511 -12.73046875 25.44970703 C-20.10495525 14.79732378 -29.34188719 5.06435463 -39.6015625 -2.84375 C-44.25588702 -1.38711881 -47.37193538 1.3057141 -50.8515625 4.59375 C-51.42148926 5.12798584 -51.99141602 5.66222168 -52.57861328 6.21264648 C-68.82013792 21.71093041 -83.19720927 43.28274259 -84.1015625 66.34375 C-83.47180554 81.49854644 -75.11239876 93.42373339 -64.51953125 103.63671875 C-59.03567093 108.37177886 -53.06171083 111.92617583 -46.6015625 115.15625 C-47.2615625 118.45625 -47.9215625 121.75625 -48.6015625 125.15625 C-61.90060371 126.48615412 -75.40396854 118.82650306 -85.546875 110.8359375 C-91.6135821 105.56269618 -96.48383182 100.05707001 -100.6015625 93.15625 C-101.13523437 92.26550781 -101.66890625 91.37476563 -102.21875 90.45703125 C-111.02802709 74.39434442 -113.21692238 55.71443998 -108.50439453 38.02416992 C-102.93996468 19.18804208 -91.35846717 5.53409249 -74.734375 -4.58984375 C-50.8774276 -17.55276503 -22.10819196 -15.66826817 0 0 Z " fill="#FCFEFD" transform="translate(153.6015625,55.84375)"/>
</svg>
